# Blender v3.1.2 OBJ File: ''
# www.blender.org
mtllib axis.mtl
o Cube_Cube.001
v -1.000000 -1.000000 1.000000
v 10.000000 0.000000 0.000000
v 10.000000 0.000000 0.000000
v 10.000000 0.000000 0.000000
v 10.000000 0.000000 0.000000
v 0.000000 0.000000 -10.000000
v 0.000000 0.000000 -10.000000
v 0.000000 0.000000 -10.000000
v 0.000000 0.000000 -10.000000
v 0.000000 10.000000 0.000000
v 0.000000 10.000000 0.000000
v 0.000000 10.000000 0.000000
v 0.000000 10.000000 0.000000
v -0.500000 1.000000 1.000000
v -1.000000 1.000000 0.500000
v -1.000000 0.500000 1.000000
v -1.000000 -0.500000 -1.000000
v -0.500000 -1.000000 -1.000000
v -1.000000 -1.000000 -0.500000
v -1.000000 0.500000 -0.500000
v -0.500000 1.000000 -1.000000
v 1.000000 -1.000000 0.500000
v 1.000000 -0.500000 1.000000
v 0.500000 -1.000000 1.000000
v 0.500000 0.500000 1.000000
v 1.000000 1.000000 0.500000
v 0.500000 -1.000000 -0.500000
v 1.000000 -0.500000 -1.000000
v 1.000000 0.500000 -1.000000
v 0.500000 1.000000 -1.000000
v 1.000000 1.000000 -0.500000
v -0.500000 2.500000 1.000000
v -1.000000 2.500000 0.500000
v -0.500000 4.000000 1.000000
v -1.000000 4.000000 0.500000
v -0.500000 5.500000 1.000000
v -1.000000 5.500000 0.500000
v -0.500000 7.000000 1.000000
v -1.000000 7.000000 0.500000
v -1.000000 8.500000 0.500000
v -0.500000 8.500000 1.000000
v -0.757464 8.863804 0.757464
v -0.500000 8.500000 -1.000000
v -1.000000 8.500000 -0.500000
v -0.757464 8.863804 -0.757464
v -0.500000 7.000000 -1.000000
v -1.000000 7.000000 -0.500000
v -0.500000 5.500000 -1.000000
v -1.000000 5.500000 -0.500000
v -0.500000 4.000000 -1.000000
v -1.000000 4.000000 -0.500000
v -1.000000 2.500000 -0.500000
v -0.500000 2.500000 -1.000000
v 1.000000 2.500000 0.500000
v 0.500000 2.500000 1.000000
v 1.000000 4.000000 0.500000
v 0.500000 4.000000 1.000000
v 1.000000 5.500000 0.500000
v 0.500000 5.500000 1.000000
v 1.000000 7.000000 0.500000
v 0.500000 7.000000 1.000000
v 0.500000 8.500000 1.000000
v 1.000000 8.500000 0.500000
v 0.757464 8.863804 0.757464
v 1.000000 8.500000 -0.500000
v 0.500000 8.500000 -1.000000
v 0.757464 8.863804 -0.757464
v 1.000000 7.000000 -0.500000
v 0.500000 7.000000 -1.000000
v 1.000000 5.500000 -0.500000
v 0.500000 5.500000 -1.000000
v 1.000000 4.000000 -0.500000
v 0.500000 4.000000 -1.000000
v 0.500000 2.500000 -1.000000
v 1.000000 2.500000 -0.500000
v 2.500000 0.500000 1.000000
v 2.500000 1.000000 0.500000
v 4.000000 0.500000 1.000000
v 4.000000 1.000000 0.500000
v 5.500000 0.500000 1.000000
v 5.500000 1.000000 0.500000
v 7.000000 0.500000 1.000000
v 7.000000 1.000000 0.500000
v 8.500000 1.000000 0.500000
v 8.500000 0.500000 1.000000
v 8.863804 0.757464 0.757464
v 8.500000 0.500000 -1.000000
v 8.500000 1.000000 -0.500000
v 8.863804 0.757464 -0.757464
v 7.000000 0.500000 -1.000000
v 7.000000 1.000000 -0.500000
v 5.500000 0.500000 -1.000000
v 5.500000 1.000000 -0.500000
v 4.000000 0.500000 -1.000000
v 4.000000 1.000000 -0.500000
v 2.500000 1.000000 -0.500000
v 2.500000 0.500000 -1.000000
v 8.500000 -1.000000 -0.500000
v 8.500000 -0.500000 -1.000000
v 8.863804 -0.757464 -0.757464
v 7.000000 -1.000000 -0.500000
v 7.000000 -0.500000 -1.000000
v 5.500000 -1.000000 -0.500000
v 5.500000 -0.500000 -1.000000
v 4.000000 -1.000000 -0.500000
v 4.000000 -0.500000 -1.000000
v 2.500000 -0.500000 -1.000000
v 2.500000 -1.000000 -0.500000
v 2.500000 -1.000000 0.500000
v 2.500000 -0.500000 1.000000
v 4.000000 -1.000000 0.500000
v 4.000000 -0.500000 1.000000
v 5.500000 -1.000000 0.500000
v 5.500000 -0.500000 1.000000
v 7.000000 -1.000000 0.500000
v 7.000000 -0.500000 1.000000
v 8.500000 -0.500000 1.000000
v 8.500000 -1.000000 0.500000
v 8.863804 -0.757464 0.757464
v -1.000000 -0.500000 -2.500000
v -0.500000 -1.000000 -2.500000
v -1.000000 -0.500000 -4.000000
v -0.500000 -1.000000 -4.000000
v -1.000000 -0.500000 -5.500000
v -0.500000 -1.000000 -5.500000
v -1.000000 -0.500000 -7.000000
v -0.500000 -1.000000 -7.000000
v -0.500000 -1.000000 -8.500000
v -1.000000 -0.500000 -8.500000
v -0.757464 -0.757464 -8.863804
v 1.000000 -0.500000 -8.500000
v 0.500000 -1.000000 -8.500000
v 0.757464 -0.757464 -8.863804
v 1.000000 -0.500000 -7.000000
v 0.500000 -1.000000 -7.000000
v 1.000000 -0.500000 -5.500000
v 0.500000 -1.000000 -5.500000
v 1.000000 -0.500000 -4.000000
v 0.500000 -1.000000 -4.000000
v 0.500000 -1.000000 -2.500000
v 1.000000 -0.500000 -2.500000
v 1.000000 0.500000 -2.500000
v 0.500000 1.000000 -2.500000
v 1.000000 0.500000 -4.000000
v 0.500000 1.000000 -4.000000
v 1.000000 0.500000 -5.500000
v 0.500000 1.000000 -5.500000
v 1.000000 0.500000 -7.000000
v 0.500000 1.000000 -7.000000
v 0.500000 1.000000 -8.500000
v 1.000000 0.500000 -8.500000
v 0.757464 0.757464 -8.863804
v -1.000000 0.500000 -8.500000
v -0.500000 1.000000 -8.500000
v -0.757464 0.757464 -8.863804
v -1.000000 0.500000 -7.000000
v -0.500000 1.000000 -7.000000
v -1.000000 0.500000 -5.500000
v -0.500000 1.000000 -5.500000
v -1.000000 0.500000 -4.000000
v -0.500000 1.000000 -4.000000
v -0.500000 1.000000 -2.500000
v -1.000000 0.500000 -2.500000
vt 0.394488 0.225216
vt 0.406154 0.192344
vt 0.452819 0.256376
vt 0.429487 0.273240
vt 1.000000 0.053047
vt 0.989788 0.070033
vt 0.950172 0.070033
vt 0.939984 0.053047
vt 0.970031 0.000000
vt 0.970031 0.000000
vt 0.939984 0.507214
vt 0.950172 0.490229
vt 0.989788 0.490229
vt 1.000000 0.507214
vt 0.970031 0.560262
vt 0.970031 0.560262
vt 0.638071 0.319188
vt 0.673069 0.271163
vt 0.696402 0.263587
vt 0.708068 0.296460
vt 0.696402 0.336908
vt 0.673069 0.344484
vt 0.084039 0.280131
vt 0.070033 0.238111
vt 0.112052 0.196092
vt 0.140065 0.224104
vt 0.378594 0.533661
vt 0.364607 0.548094
vt 0.336594 0.548234
vt 0.336157 0.533873
vt 0.378534 0.488804
vt 0.378534 0.488804
vt 0.500265 0.488803
vt 0.500265 0.488803
vt 0.500265 0.488803
vt 0.500265 0.488803
vt 0.950019 0.448209
vt 0.989635 0.448209
vt 0.509874 0.820148
vt 0.520074 0.805735
vt 0.559690 0.805735
vt 0.569890 0.820148
vt 0.539882 0.865160
vt 0.539882 0.865160
vt 0.238111 0.490229
vt 0.266124 0.462216
vt 0.308144 0.504235
vt 0.280131 0.532248
vt 0.500265 0.488803
vt 0.500265 0.488803
vt 0.500265 0.488803
vt 0.500265 0.488803
vt 0.325547 0.053047
vt 0.308144 0.056026
vt 0.280131 0.028013
vt 0.283110 0.010610
vt 0.336157 0.000000
vt 0.336157 0.000000
vt 0.989635 0.112052
vt 0.950019 0.112052
vt 0.500265 0.488803
vt 0.500265 0.488803
vt 0.500265 0.488803
vt 0.500265 0.488803
vt 0.914541 0.036936
vt 0.894728 0.040331
vt 0.871395 0.023467
vt 0.879194 0.011388
vt 0.939984 0.000000
vt 0.939984 0.000000
vt 0.364687 0.607518
vt 0.336674 0.607657
vt 0.520074 0.568036
vt 0.559690 0.568036
vt 0.559690 0.627461
vt 0.520074 0.627461
vt 0.989022 0.280131
vt 0.949406 0.280131
vt 0.949559 0.238111
vt 0.989176 0.238111
vt 0.420873 0.726394
vt 0.392860 0.726329
vt 0.392780 0.666904
vt 0.420793 0.666969
vt 0.392700 0.607480
vt 0.420713 0.607545
vt 0.392620 0.548057
vt 0.420633 0.548120
vt 0.421032 0.533758
vt 0.378534 0.488804
vt 0.070033 0.322150
vt 0.140065 0.336157
vt 0.112052 0.364170
vt 0.420953 0.785818
vt 0.392939 0.785753
vt 0.364926 0.785790
vt 0.336913 0.785931
vt 0.336834 0.726506
vt 0.364847 0.726367
vt 0.336754 0.667082
vt 0.364767 0.666943
vt 0.731400 0.215563
vt 0.754733 0.232428
vt 0.789732 0.184403
vt 0.766399 0.167539
vt 0.801398 0.119515
vt 0.824731 0.136379
vt 0.836397 0.071491
vt 0.859729 0.088355
vt 0.577280 0.477415
vt 0.569482 0.465337
vt 0.592814 0.448472
vt 0.612627 0.451867
vt 0.638070 0.488803
vt 0.638070 0.488803
vt 0.042020 0.238111
vt 0.042020 0.322150
vt 0.000000 0.280131
vt 0.487818 0.304400
vt 0.464486 0.321264
vt 0.522817 0.352424
vt 0.499484 0.369288
vt 0.557815 0.400448
vt 0.534483 0.417313
vt 0.394488 0.151895
vt 0.429487 0.126599
vt 0.452819 0.158615
vt 0.154072 0.154072
vt 0.182085 0.182085
vt 0.182085 0.378177
vt 0.154072 0.406189
vt 0.224105 0.420196
vt 0.196092 0.448209
vt 0.520074 0.508612
vt 0.559690 0.508612
vt 0.559690 0.686886
vt 0.520074 0.686886
vt 0.559690 0.746310
vt 0.520074 0.746310
vt 0.612627 0.055626
vt 0.592814 0.057430
vt 0.569482 0.025414
vt 0.577280 0.007124
vt 0.638071 0.000000
vt 0.638071 0.000000
vt 0.283110 0.549652
vt 0.325547 0.507214
vt 0.336157 0.560262
vt 0.336157 0.560262
vt 0.949559 0.322150
vt 0.989176 0.322150
vt 0.989329 0.364170
vt 0.949712 0.364170
vt 0.989482 0.406189
vt 0.949866 0.406189
vt 0.421032 0.845242
vt 0.393019 0.845178
vt 0.464486 0.101303
vt 0.487818 0.133319
vt 0.499484 0.076006
vt 0.522817 0.108023
vt 0.534483 0.050710
vt 0.557815 0.082726
vt 0.480457 0.785928
vt 0.440841 0.785928
vt 0.440841 0.726502
vt 0.480457 0.726502
vt 0.949712 0.196092
vt 0.989329 0.196092
vt 0.949866 0.154072
vt 0.989482 0.154072
vt 0.480457 0.845352
vt 0.440841 0.845352
vt 0.196092 0.112052
vt 0.224105 0.140065
vt 0.238111 0.070033
vt 0.266124 0.098046
vt 0.879194 0.481679
vt 0.871395 0.463390
vt 0.894728 0.431374
vt 0.914541 0.433177
vt 0.939984 0.488803
vt 0.939984 0.488803
vt 0.365006 0.845215
vt 0.336993 0.845355
vt 0.440841 0.667078
vt 0.480457 0.667078
vt 0.440841 0.607654
vt 0.480457 0.607654
vt 0.440841 0.548228
vt 0.480457 0.548228
vt 0.490657 0.533816
vt 0.430641 0.533816
vt 0.460649 0.488804
vt 0.460649 0.488804
vt 0.754733 0.330188
vt 0.731400 0.362205
vt 0.789732 0.355484
vt 0.766399 0.387501
vt 0.824731 0.380781
vt 0.801398 0.412797
vt 0.859729 0.406077
vt 0.836397 0.438093
vt 0.579498 0.800339
vt 0.607512 0.800339
vt 0.593505 0.820079
vt 0.695697 0.360979
vt 0.393784 0.127824
vt 0.371156 0.144319
vt 0.379039 0.864953
vt 0.607512 0.503219
vt 0.579498 0.503219
vt 0.593505 0.488804
vt 0.917356 0.056826
vt 0.615442 0.431978
vt 0.579498 0.805735
vt 0.500265 0.805735
vt 0.322150 0.490229
vt 0.266124 0.546255
vt 0.266124 0.014007
vt 0.322150 0.070033
vt 0.421032 0.548228
vt 0.500265 0.548228
vt 0.500265 0.568036
vt 0.500265 0.508612
vt 0.112052 0.280131
vt 0.154072 0.322150
vt 0.154072 0.238111
vt 0.500265 0.785928
vt 0.500265 0.865160
vt 0.777361 0.248922
vt 0.742362 0.296947
vt 0.579498 0.740914
vt 0.607512 0.740914
vt 0.579498 0.681490
vt 0.607512 0.681490
vt 0.579498 0.622066
vt 0.607512 0.622066
vt 0.579498 0.562642
vt 0.607512 0.562642
vt 0.882357 0.104850
vt 0.847359 0.152874
vt 0.812360 0.200898
vt 0.440449 0.191857
vt 0.475447 0.239881
vt 0.510446 0.287905
vt 0.545445 0.335929
vt 0.580444 0.383954
vt 0.579498 0.488803
vt 0.579498 0.568036
vt 0.579498 0.627461
vt 0.579498 0.686886
vt 0.579498 0.746310
vt 0.500265 0.746310
vt 0.500265 0.686886
vt 0.500265 0.627461
vt 0.280131 0.448209
vt 0.238111 0.406189
vt 0.196092 0.364170
vt 0.098046 0.378177
vt 0.056026 0.336157
vt 0.140065 0.420196
vt 0.182085 0.462216
vt 0.224105 0.504235
vt 0.056026 0.224104
vt 0.098046 0.182085
vt 0.140065 0.140065
vt 0.182085 0.098046
vt 0.224105 0.056026
vt 0.280131 0.112052
vt 0.238111 0.154072
vt 0.196092 0.196092
vt 0.421032 0.845352
vt 0.421032 0.785928
vt 0.421032 0.726502
vt 0.421032 0.667078
vt 0.421032 0.607654
vt 0.500265 0.607654
vt 0.500265 0.667078
vt 0.500265 0.726502
vt 0.371156 0.217640
vt 0.336157 0.169616
vn 0.0000 0.0000 1.0000
vn 0.8321 -0.0000 -0.5547
vn 0.5547 -0.0000 -0.8321
vn -1.0000 0.0000 0.0000
vn 0.0000 -1.0000 0.0000
vn -0.0000 0.5547 -0.8321
vn 0.0000 0.0000 -1.0000
vn 0.5547 0.8321 0.0000
vn 0.0000 -0.8321 -0.5547
vn 1.0000 0.0000 0.0000
vn -0.8321 0.5547 -0.0000
vn 0.0000 1.0000 0.0000
vn 0.8321 0.5547 0.0000
vn 0.0000 0.5547 0.8321
vn 0.5547 0.0000 0.8321
vn 0.5547 -0.8321 -0.0000
vn -0.8321 0.0000 -0.5547
vn -0.0000 0.8321 -0.5547
vn -0.5774 0.5774 0.5774
vn -0.5774 -0.5774 -0.5774
vn 0.5774 -0.5774 0.5774
vn 0.5774 0.5774 -0.5774
vn -0.7068 -0.0290 0.7068
vn -0.7068 -0.0290 -0.7068
vn 0.7068 -0.0290 0.7068
vn 0.7068 -0.0290 -0.7068
vn -0.0290 0.7068 0.7068
vn -0.0290 0.7068 -0.7068
vn -0.0290 -0.7068 -0.7068
vn -0.0290 -0.7068 0.7068
vn -0.7068 -0.7068 0.0290
vn 0.7068 -0.7068 0.0290
vn 0.7068 0.7068 0.0290
vn -0.7068 0.7068 0.0290
vn 0.0000 0.7071 -0.7071
vn 0.0000 -0.7071 -0.7071
vn 0.7071 -0.7071 0.0000
vn -0.7071 0.7071 0.0000
vn -0.7071 0.0000 -0.7071
vn 0.7071 0.0000 -0.7071
vn -0.7071 0.0000 0.7071
vn 0.7071 0.0000 0.7071
vn 0.0000 0.7071 0.7071
vn 0.0000 -0.7071 0.7071
vn -0.7071 -0.7071 0.0000
vn 0.7071 0.7071 0.0000
usemtl Material.004
s off
f 14/1/1 25/2/1 55/3/1 32/4/1
f 152/5/2 151/6/2 131/7/2 133/8/2 8/9/2 9/10/2
f 100/11/3 99/12/3 87/13/3 89/14/3 2/15/3 3/16/3
f 1/17/4 16/18/4 15/19/4 20/20/4 17/21/4 19/22/4
f 27/23/5 18/24/5 121/25/5 140/26/5
f 67/27/6 66/28/6 43/29/6 45/30/6 11/31/6 12/32/6
f 3/33/1 2/34/1 5/35/1 4/36/1
f 102/37/7 90/38/7 87/13/7 99/12/7
f 89/39/8 88/40/8 84/41/8 86/42/8 5/43/8 2/44/8
f 115/45/5 101/46/5 98/47/5 118/48/5
f 7/49/1 6/50/1 9/51/1 8/52/1
f 133/53/9 132/54/9 128/55/9 130/56/9 7/57/9 8/58/9
f 148/59/10 134/60/10 131/7/10 151/6/10
f 12/61/1 11/62/1 10/63/1 13/64/1
f 45/65/11 44/66/11 40/67/11 42/68/11 10/69/11 11/70/11
f 69/71/7 46/72/7 43/29/7 66/28/7
f 96/73/12 77/74/12 79/75/12 95/76/12
f 29/77/10 28/78/10 141/79/10 142/80/10
f 56/81/10 72/82/10 70/83/10 58/84/10
f 58/84/10 70/83/10 68/85/10 60/86/10
f 60/86/10 68/85/10 65/87/10 63/88/10
f 64/89/13 63/88/13 65/87/13 67/27/13 12/32/13 13/90/13
f 22/91/5 27/23/5 108/92/5 109/93/5
f 54/94/10 75/95/10 72/82/10 56/81/10
f 74/96/7 53/97/7 50/98/7 73/99/7
f 73/99/7 50/98/7 48/100/7 71/101/7
f 71/101/7 48/100/7 46/72/7 69/71/7
f 20/20/4 15/19/4 33/102/4 52/103/4
f 51/104/4 35/105/4 37/106/4 49/107/4
f 49/107/4 37/106/4 39/108/4 47/109/4
f 47/109/4 39/108/4 40/67/4 44/66/4
f 42/110/14 41/111/14 62/112/14 64/113/14 13/114/14 10/115/14
f 19/116/5 18/24/5 27/23/5 22/91/5 24/117/5 1/118/5
f 32/4/1 55/3/1 57/119/1 34/120/1
f 34/120/1 57/119/1 59/121/1 36/122/1
f 36/122/1 59/121/1 61/123/1 38/124/1
f 38/124/1 61/123/1 62/112/1 41/111/1
f 25/2/1 23/125/1 110/126/1 76/127/1
f 140/26/5 121/25/5 123/128/5 139/129/5
f 109/93/5 108/92/5 105/130/5 111/131/5
f 111/131/5 105/130/5 103/132/5 113/133/5
f 113/133/5 103/132/5 101/46/5 115/45/5
f 31/134/12 26/135/12 77/74/12 96/73/12
f 95/76/12 79/75/12 81/136/12 93/137/12
f 93/137/12 81/136/12 83/138/12 91/139/12
f 91/139/12 83/138/12 84/41/12 88/40/12
f 86/140/15 85/141/15 117/142/15 119/143/15 4/144/15 5/145/15
f 52/103/4 33/102/4 35/105/4 51/104/4
f 119/146/16 118/48/16 98/47/16 100/147/16 3/148/16 4/149/16
f 107/150/7 97/151/7 94/152/7 106/153/7
f 106/153/7 94/152/7 92/154/7 104/155/7
f 104/155/7 92/154/7 90/38/7 102/37/7
f 26/156/10 31/157/10 75/95/10 54/94/10
f 76/127/1 110/126/1 112/158/1 78/159/1
f 78/159/1 112/158/1 114/160/1 80/161/1
f 80/161/1 114/160/1 116/162/1 82/163/1
f 82/163/1 116/162/1 117/142/1 85/141/1
f 28/78/7 29/77/7 97/151/7 107/150/7
f 162/164/12 143/165/12 145/166/12 161/167/12
f 142/80/10 141/79/10 138/168/10 144/169/10
f 144/169/10 138/168/10 136/170/10 146/171/10
f 146/171/10 136/170/10 134/60/10 148/59/10
f 21/172/12 30/173/12 143/165/12 162/164/12
f 139/129/5 123/128/5 125/174/5 137/175/5
f 137/175/5 125/174/5 127/176/5 135/177/5
f 135/177/5 127/176/5 128/55/5 132/54/5
f 130/178/17 129/179/17 153/180/17 155/181/17 6/182/17 7/183/17
f 30/184/7 21/185/7 53/97/7 74/96/7
f 161/167/12 145/166/12 147/186/12 159/187/12
f 159/187/12 147/186/12 149/188/12 157/189/12
f 157/189/12 149/188/12 150/190/12 154/191/12
f 155/192/18 154/191/18 150/190/18 152/193/18 9/194/18 6/195/18
f 17/21/4 20/20/4 163/196/4 120/197/4
f 120/197/4 163/196/4 160/198/4 122/199/4
f 122/199/4 160/198/4 158/200/4 124/201/4
f 124/201/4 158/200/4 156/202/4 126/203/4
f 126/203/4 156/202/4 153/180/4 129/179/4
f 14/204/19 15/205/19 16/206/19
f 17/21/20 18/207/20 19/22/20
f 22/208/21 23/125/21 24/209/21
f 29/210/22 30/184/22 31/157/22
f 40/211/23 41/212/23 42/213/23
f 43/214/24 44/66/24 45/65/24
f 62/112/25 63/215/25 64/113/25
f 65/87/26 66/28/26 67/27/26
f 84/41/27 85/216/27 86/42/27
f 87/217/28 88/40/28 89/39/28
f 98/47/29 99/218/29 100/147/29
f 117/219/30 118/48/30 119/146/30
f 128/55/31 129/220/31 130/56/31
f 131/221/32 132/54/32 133/53/32
f 150/190/33 151/222/33 152/193/33
f 153/223/34 154/191/34 155/192/34
f 97/224/35 29/225/35 31/134/35 96/73/35
f 108/92/36 27/23/36 28/226/36 107/227/36
f 141/228/37 28/226/37 27/23/37 140/26/37
f 163/229/38 20/230/38 21/172/38 162/164/38
f 53/231/39 21/232/39 20/20/39 52/103/39
f 75/95/40 31/157/40 30/184/40 74/96/40
f 14/204/41 32/233/41 33/234/41 15/205/41
f 32/233/41 34/235/41 35/236/41 33/234/41
f 34/235/41 36/237/41 37/238/41 35/236/41
f 36/237/41 38/239/41 39/240/41 37/238/41
f 38/239/41 41/212/41 40/211/41 39/240/41
f 43/214/39 46/241/39 47/109/39 44/66/39
f 46/241/39 48/242/39 49/107/39 47/109/39
f 48/242/39 50/243/39 51/104/39 49/107/39
f 50/243/39 53/231/39 52/103/39 51/104/39
f 26/244/42 54/245/42 55/3/42 25/2/42
f 54/245/42 56/246/42 57/119/42 55/3/42
f 56/246/42 58/247/42 59/121/42 57/119/42
f 58/247/42 60/248/42 61/123/42 59/121/42
f 60/248/42 63/215/42 62/112/42 61/123/42
f 65/87/40 68/85/40 69/71/40 66/28/40
f 68/85/40 70/83/40 71/101/40 69/71/40
f 70/83/40 72/82/40 73/99/40 71/101/40
f 72/82/40 75/95/40 74/96/40 73/99/40
f 25/249/43 76/250/43 77/74/43 26/135/43
f 76/250/43 78/251/43 79/75/43 77/74/43
f 78/251/43 80/252/43 81/136/43 79/75/43
f 80/252/43 82/253/43 83/138/43 81/136/43
f 82/253/43 85/216/43 84/41/43 83/138/43
f 87/217/35 90/254/35 91/139/35 88/40/35
f 90/254/35 92/255/35 93/137/35 91/139/35
f 92/255/35 94/256/35 95/76/35 93/137/35
f 94/256/35 97/224/35 96/73/35 95/76/35
f 98/47/36 101/46/36 102/257/36 99/218/36
f 101/46/36 103/132/36 104/258/36 102/257/36
f 103/132/36 105/130/36 106/259/36 104/258/36
f 105/130/36 108/92/36 107/227/36 106/259/36
f 22/91/44 109/93/44 110/260/44 23/261/44
f 109/93/44 111/131/44 112/262/44 110/260/44
f 111/131/44 113/133/44 114/263/44 112/262/44
f 113/133/44 115/45/44 116/264/44 114/263/44
f 115/45/44 118/48/44 117/219/44 116/264/44
f 17/265/45 120/266/45 121/25/45 18/24/45
f 120/266/45 122/267/45 123/128/45 121/25/45
f 122/267/45 124/268/45 125/174/45 123/128/45
f 124/268/45 126/269/45 127/176/45 125/174/45
f 126/269/45 129/220/45 128/55/45 127/176/45
f 131/221/37 134/270/37 135/177/37 132/54/37
f 134/270/37 136/271/37 137/175/37 135/177/37
f 136/271/37 138/272/37 139/129/37 137/175/37
f 138/272/37 141/228/37 140/26/37 139/129/37
f 29/273/46 142/274/46 143/165/46 30/173/46
f 142/274/46 144/275/46 145/166/46 143/165/46
f 144/275/46 146/276/46 147/186/46 145/166/46
f 146/276/46 148/277/46 149/188/46 147/186/46
f 148/277/46 151/222/46 150/190/46 149/188/46
f 153/223/38 156/278/38 157/189/38 154/191/38
f 156/278/38 158/279/38 159/187/38 157/189/38
f 158/279/38 160/280/38 161/167/38 159/187/38
f 160/280/38 163/229/38 162/164/38 161/167/38
f 24/209/1 23/125/1 25/2/1 14/1/1 16/281/1 1/282/1
